<svg width="335" height="78" viewBox="0 0 335 78" fill="none" xmlns="http://www.w3.org/2000/svg">
<path fill-rule="evenodd" clip-rule="evenodd" d="M72.3087 57.3222C69.1799 62.9528 65.8104 65.907 60.8418 70.0011L55.3138 64.5533C59.6784 61.7868 62.9894 58.092 65.49 53.5917C67.9908 49.0911 69.3157 44.0408 69.3437 38.9016C69.3542 36.9891 69.185 35.0865 68.842 33.2185L74.7877 25.3358C76.4122 29.6632 77.1558 34.1984 77.1299 38.9437C77.0944 45.3733 75.4372 51.6915 72.3087 57.3222ZM71.4763 18.6277C68.6341 13.9188 65.1586 9.93191 60.4469 6.87305L54.9848 12.5189C59.3187 15.3325 63.3427 19.1883 65.6514 24.1708C65.6681 24.2014 65.6845 24.2319 65.7009 24.2624L71.4763 18.6277Z" fill="#4C5256"/>
<path d="M56.5657 4.485C50.6543 1.47688 44.3388 -0.200659 37.6946 0.0192223C31.0505 0.239103 24.5734 2.13519 18.8786 5.52744C13.1838 8.91964 8.46026 13.6954 5.15655 19.4012C1.85287 25.1069 0.078705 31.5532 0.00255895 38.1281C-0.0735871 44.7025 1.55081 51.1874 4.72151 56.9665C7.89218 62.7457 12.5039 67.6272 18.1186 71.1474C23.7334 74.668 30.1648 76.7104 36.8023 77.0806C43.4396 77.4508 50.8434 75.6417 56.7644 72.4327L51.1408 66.776C47.0724 68.463 42.5483 69.6481 37.2431 69.352C31.9376 69.0563 26.7969 67.4238 22.3089 64.6097C17.821 61.796 14.1347 57.8939 11.6004 53.2748C9.06602 48.6553 7.76761 43.4718 7.82847 38.2166C7.88933 32.9613 9.30744 27.8087 11.9481 23.248C14.5888 18.6873 18.3644 14.8699 22.9164 12.1585C27.4684 9.44702 32.6456 7.93142 37.9564 7.75568C43.2355 7.75568 46.0469 8.157 50.7415 10.1867L56.5657 4.485Z" fill="#21AAE9"/>
<path d="M16.2918 24.6912H23.6039L35.6375 56.0007H28.3256L16.2918 24.6912Z" fill="#21AAE9"/>
<path d="M46.3256 24.6912H38.9171L26.7253 56.0007H34.1335L46.3256 24.6912Z" fill="#21AAE9"/>
<path d="M26.12 24.6912H23.5535L23.4236 24.7548L24.853 28.5094L25.0479 28.4457C24.5801 27.0203 25.5244 26.1124 26.055 25.8366C27.2505 25.1239 26.5964 24.776 26.12 24.6912Z" fill="#21AAE9"/>
<path d="M48.9316 24.6912H46.4561L46.3264 24.7548L47.7557 28.5094L47.9508 28.4457C47.4828 27.0203 48.4272 26.1124 48.9576 25.8366C50.08 25.1676 49.5725 24.82 49.1119 24.7097C49.0529 24.6956 48.9923 24.6912 48.9316 24.6912Z" fill="#21AAE9"/>
<path d="M30.752 43.2737C31.2368 43.7768 31.5802 43.4833 31.6914 43.2737L31.8126 43.3038L31.2368 44.801L30.5399 43.3038L30.752 43.2737Z" fill="#21AAE9"/>
<path d="M39.1947 24.6912H46.5426L52.1767 39.8369L48.6511 49.6369L39.1947 24.6912Z" fill="#21AAE9"/>
<path d="M35.3039 53.1049C35.0675 54.0721 35.4245 54.5261 35.6326 54.6321L35.5338 54.9822L34.6144 54.0275L34.9428 52.9458L35.3039 53.1049Z" fill="#21AAE9"/>
<path d="M27.003 52.6914C27.2499 53.9409 26.9722 54.6699 26.7253 54.7394L26.8796 54.9823L27.7435 53.9409L27.435 52.7609L27.003 52.6914Z" fill="#21AAE9"/>
<path d="M43.3815 36.1468C42.6172 34.8304 42.009 35.5982 41.8002 36.1468H41.2402L42.5577 32.3286L44.0403 36.1468H43.3815Z" fill="#21AAE9"/>
<path d="M15.0865 25.7266C16.2717 26.0373 17.3142 27.7112 17.6874 28.5094H17.8191L16.3376 24.6912H14.6915C13.7433 25.0536 14.5598 25.5325 15.0865 25.7266Z" fill="#21AAE9"/>
<path d="M26.0409 54.9657C27.2261 54.655 28.2686 52.9809 28.6417 52.1829H28.7735L27.292 56.0011H25.7419C25.6784 56.0011 25.6148 55.9904 25.5569 55.9648C24.7517 55.6074 25.5317 55.1533 26.0409 54.9657Z" fill="#21AAE9"/>
<path d="M36.593 54.9657C35.4078 54.655 34.3651 52.9809 33.992 52.1829H33.8603L35.3419 56.0011H36.8918C36.9553 56.0011 37.0188 55.9904 37.0769 55.9648C37.882 55.6074 37.1021 55.1533 36.593 54.9657Z" fill="#21AAE9"/>
<path d="M48.6879 54.9657C49.8731 54.655 50.9156 52.9809 51.2888 52.1829H51.4206L49.939 56.0011H48.3891C48.3256 56.0011 48.2618 55.9904 48.2041 55.9648C47.3989 55.6074 48.1788 55.1533 48.6879 54.9657Z" fill="#21AAE9"/>
<path d="M59.748 54.9657C58.5628 54.655 57.5203 52.9809 57.1471 52.1829H57.0153L58.4969 56.0011H60.0468C60.1103 56.0011 60.1742 55.9904 60.2319 55.9648C61.037 55.6074 60.2571 55.1533 59.748 54.9657Z" fill="#21AAE9"/>
<path d="M36.3393 24.6912H38.8148L38.9446 24.7548L37.5153 28.5094L37.3202 28.4457C37.7882 27.0203 36.8437 26.1124 36.313 25.8366C35.191 25.1676 35.6985 24.82 36.1591 24.7097C36.218 24.6956 36.2787 24.6912 36.3393 24.6912Z" fill="#21AAE9"/>
<path d="M58.8059 55.4917H49.8967V56.0008H58.8059V55.4917Z" fill="#21AAE9"/>
<path d="M49.7331 53.7623C49.6005 54.1591 49.2805 54.5669 49.1369 54.7213L48.8722 55.1843L50.0641 55.7465H58.5065L58.5728 55.3829L58.5065 54.4568C59.0628 40.8846 75.734 19.9641 83.9999 11.2004C62.3871 26.3336 52.1498 45.8806 49.7331 53.7623Z" fill="#21AAE9"/>
<path d="M213.961 43.5686L214.626 41.2037C217.562 42.4759 220.249 43.1122 222.686 43.1122C224.209 43.1122 225.428 42.8218 226.342 42.2409C227.284 41.6601 227.755 40.8442 227.755 39.793C227.755 39.2396 227.616 38.7697 227.34 38.3823C227.063 37.9949 226.606 37.677 225.968 37.428C225.359 37.1516 224.764 36.9441 224.182 36.8057C223.6 36.6397 222.797 36.4462 221.772 36.2248C221.662 36.1973 221.578 36.1833 221.523 36.1833C221.495 36.1833 221.44 36.1693 221.357 36.1418C221.274 36.1143 221.205 36.1003 221.149 36.1003C218.933 35.6299 217.313 35.0076 216.288 34.2332C215.291 33.4589 214.792 32.3107 214.792 30.7895C214.792 28.9914 215.457 27.5947 216.787 26.5989C218.144 25.6031 220.013 25.1052 222.395 25.1052C224.888 25.1052 227.354 25.5477 229.791 26.433L229.085 28.6735C226.453 27.8436 224.154 27.4287 222.188 27.4287C219.113 27.4287 217.576 28.5075 217.576 30.665C217.576 31.5778 217.936 32.2417 218.656 32.6566C219.404 33.044 220.761 33.4589 222.728 33.9013C223.808 34.1502 224.667 34.3577 225.304 34.5237C225.941 34.6896 226.619 34.9246 227.34 35.229C228.087 35.5334 228.655 35.8653 229.043 36.2248C229.431 36.5842 229.749 37.0406 229.999 37.594C230.275 38.1473 230.414 38.7972 230.414 39.544C230.414 41.4526 229.694 42.9188 228.254 43.9421C226.841 44.9654 224.93 45.4772 222.52 45.4772C219.806 45.4772 216.953 44.8409 213.961 43.5686ZM258.367 25.0638C260.776 25.0638 262.618 25.7136 263.892 27.0138C265.166 28.314 265.804 30.2776 265.804 32.9055V44.8549H262.978V33.5694C262.978 29.6417 261.275 27.6777 257.868 27.6777C255.458 27.6777 253.228 28.0651 251.179 28.8394C251.594 29.7797 251.802 31.0524 251.802 32.6566V44.8549H248.977V33.3619C248.977 31.2874 248.562 29.8212 247.731 28.9639C246.9 28.1066 245.542 27.6777 243.659 27.6777C241.554 27.7607 239.615 27.9406 237.842 28.2171V44.8549H234.976V26.101C237.939 25.4926 241 25.1467 244.158 25.0638C246.65 25.0638 248.492 25.6031 249.683 26.6819C252.287 25.6031 255.181 25.0638 258.367 25.0638ZM272.836 27.8021C274.803 25.8936 277.337 24.9393 280.439 24.9393C283.541 24.9393 286.062 25.8796 288.001 27.7607C289.967 29.6417 290.951 32.1172 290.951 35.1875C290.951 38.2578 289.967 40.7473 288.001 42.6559C286.062 44.5644 283.541 45.5187 280.439 45.5187C277.337 45.5187 274.803 44.5644 272.836 42.6559C270.897 40.7473 269.928 38.2578 269.928 35.1875C269.928 32.1447 270.897 29.6832 272.836 27.8021ZM274.955 40.8303C276.368 42.2409 278.196 42.9463 280.439 42.9463C282.683 42.9463 284.511 42.2409 285.924 40.8303C287.336 39.3921 288.043 37.511 288.043 35.1875C288.043 32.8915 287.336 31.0524 285.924 29.6692C284.511 28.2585 282.683 27.5532 280.439 27.5532C278.196 27.5532 276.368 28.2585 274.955 29.6692C273.543 31.0524 272.836 32.8915 272.836 35.1875C272.836 37.511 273.543 39.3921 274.955 40.8303ZM307.871 42.5729L308.203 44.9378C306.736 45.2973 305.323 45.4772 303.965 45.4772C301.75 45.4772 300.102 44.8964 299.021 43.7346C297.969 42.5454 297.443 40.6918 297.443 38.1748V28.2585H293.039V25.6861H297.443V17.6369H300.268V25.6861H307.123V28.2585H300.268V37.9259C300.268 39.6685 300.587 40.9407 301.223 41.7431C301.888 42.5174 302.955 42.9048 304.423 42.9048C305.392 42.9048 306.541 42.7943 307.871 42.5729ZM313.388 20.2093C313 20.5966 312.515 20.7902 311.934 20.7902C311.352 20.7902 310.853 20.5966 310.438 20.2093C310.05 19.8221 309.856 19.338 309.856 18.7572C309.856 18.1486 310.05 17.6508 310.438 17.2635C310.853 16.8762 311.352 16.6826 311.934 16.6826C312.515 16.6826 313 16.8762 313.388 17.2635C313.803 17.6508 314.011 18.1486 314.011 18.7572C314.011 19.338 313.803 19.8221 313.388 20.2093ZM313.388 25.6861V44.8549H310.521V25.6861H313.388ZM333.585 26.018L333.169 28.3C330.898 27.7192 328.904 27.4287 327.186 27.4287C324.749 27.4287 322.796 28.1481 321.328 29.5862C319.86 30.9969 319.126 32.878 319.126 35.229C319.126 37.5525 319.846 39.4336 321.287 40.8717C322.727 42.2824 324.583 42.9878 326.854 42.9878C328.543 42.9878 330.759 42.6283 333.501 41.909L334 44.274C331.397 45.0763 328.987 45.4772 326.771 45.4772C323.669 45.4772 321.134 44.5369 319.168 42.6559C317.229 40.7748 316.259 38.2853 316.259 35.1875C316.259 32.0897 317.243 29.6138 319.209 27.7607C321.203 25.9076 323.807 24.9808 327.02 24.9808C329.374 24.9808 331.563 25.3267 333.585 26.018Z" fill="#4C5256" stroke="#4C5256"/>
<path d="M126.22 44.5388H123.335L115.109 20.3664L106.84 44.5388H103.954L93.9193 15.2911H97.1924L105.462 39.8509L113.773 15.2911H116.401L124.713 39.8075L132.982 15.2911H136.255L126.22 44.5388ZM143.989 24.0224C146.832 24.0224 149.129 24.8827 150.88 26.6031C152.632 28.2951 153.522 30.5745 153.551 33.4421C153.551 34.1302 153.493 34.8901 153.378 35.7214H136.797C137.027 37.7861 137.816 39.4348 139.166 40.6677C140.544 41.9007 142.324 42.5174 144.506 42.5174C146.458 42.5174 148.899 42.1447 151.828 41.3992L152.301 43.8078C149.229 44.7254 146.602 45.1839 144.42 45.1839C141.089 45.1839 138.462 44.2094 136.539 42.2594C134.615 40.281 133.653 37.7143 133.653 34.5603C133.653 31.4062 134.615 28.8685 136.539 26.9474C138.462 24.9973 140.946 24.0224 143.989 24.0224ZM144.076 26.431C141.951 26.431 140.228 27.0617 138.908 28.3236C137.615 29.5855 136.883 31.277 136.711 33.3991H150.837C150.809 31.2486 150.177 29.5566 148.942 28.3236C147.707 27.0617 146.085 26.431 144.076 26.431ZM159.426 14.0007V24.9257C161.522 24.3235 163.862 24.0224 166.446 24.0224C169.662 24.0224 172.174 24.983 173.983 26.904C175.82 28.7966 176.739 31.3199 176.739 34.4744C176.739 37.7432 175.82 40.3384 173.983 42.2594C172.174 44.152 169.791 45.0981 166.834 45.0981C163.302 45.0981 159.842 44.7828 156.454 44.152V14.0007H159.426ZM166.145 26.5602C163.762 26.5602 161.522 26.8611 159.426 27.4634V42.0444C161.723 42.4456 164.02 42.6466 166.317 42.6466C168.671 42.6466 170.509 41.9152 171.829 40.4527C173.179 38.9617 173.854 36.9688 173.854 34.4744C173.854 32.0654 173.193 30.1444 171.873 28.7108C170.552 27.2768 168.643 26.5602 166.145 26.5602Z" fill="#4C5256" stroke="#4C5256"/>
<path d="M206.914 41.496C208.488 39.9106 209.717 38.0125 210.522 35.9226C211.328 33.8323 211.692 31.5962 211.592 29.3566C211.492 27.1169 210.93 24.9227 209.941 22.9139C208.952 20.9052 207.559 19.1259 205.849 17.6895L203.561 20.4499C204.89 21.5664 205.973 22.9494 206.742 24.5107C207.511 26.0722 207.948 27.7775 208.025 29.5181C208.103 31.2591 207.82 32.997 207.194 34.6218C206.568 36.2461 205.612 37.7216 204.389 38.9536L206.914 41.496Z" fill="#4C5256" stroke="#4C5256" stroke-width="0.6"/>
<path d="M203.659 16.2819C201.18 14.8125 198.351 14.025 195.463 14.0006C192.576 13.9762 189.733 14.7157 187.23 16.143C184.727 17.5703 182.652 19.6337 181.221 22.1203C179.79 24.6069 179.055 27.4267 179.09 30.2893C179.124 33.1518 179.929 35.9534 181.42 38.405C182.912 40.8565 185.035 42.8695 187.573 44.236C190.11 45.603 192.97 46.2743 195.857 46.1805C198.743 46.0866 202.271 44.8406 204.572 43.1876L202.063 40.672C200.165 41.8598 197.981 42.5244 195.738 42.5975C193.494 42.6701 191.272 42.1486 189.299 41.0861C187.327 40.0241 185.677 38.4595 184.517 36.5539C183.358 34.6483 182.733 32.471 182.706 30.246C182.679 28.0209 183.251 25.8292 184.363 23.8965C185.475 21.9637 187.087 20.36 189.033 19.2506C190.979 18.1412 192.993 17.5914 195.238 17.6104C197.483 17.6293 198.971 17.7167 201.055 18.8718L203.659 16.2819Z" fill="#21AAE9" stroke="#21AAE9" stroke-width="0.6"/>
<path d="M195.681 58.411C195.681 59.4879 195.054 60.0263 193.801 60.0263H188.179V63.3367H186.561V54.8813H193.801C195.054 54.8813 195.681 55.4264 195.681 56.5166V58.411ZM194.043 57.9923V56.9154C194.043 56.3836 193.72 56.1177 193.073 56.1177H188.179V58.7899H193.073C193.72 58.7899 194.043 58.524 194.043 57.9923Z" fill="#4C5256"/>
<path d="M207.965 63.3367H205.801L202.383 60.0263H200.038V63.3367H198.42V54.8813H205.316C206.515 54.8813 207.115 55.4264 207.115 56.5166V58.411C207.115 59.222 206.805 59.7272 206.185 59.9266C205.956 59.9931 205.289 60.0263 204.183 60.0263L207.965 63.3367ZM205.518 57.9923V56.9752C205.518 56.4036 205.214 56.1177 204.608 56.1177H200.038V58.8498H204.608C204.958 58.8498 205.194 58.7966 205.316 58.6902C205.45 58.5706 205.518 58.3379 205.518 57.9923Z" fill="#4C5256"/>
<path d="M211.994 63.3367H210.377V54.9013H211.994V63.3367Z" fill="#4C5256"/>
<path d="M224.844 54.8813L220.153 63.3367H218.919L213.985 54.8813H215.724L219.566 61.6815L223.247 54.8813H224.844Z" fill="#4C5256"/>
<path d="M236.228 63.3367H234.468L233.356 61.3624H227.431L226.339 63.3367H224.722L229.676 54.8813H231.152L236.228 63.3367ZM232.669 60.146L230.384 56.1177L228.119 60.146H232.669Z" fill="#4C5256"/>
<path d="M245.454 56.1377H241.39V63.3367H239.772V56.1377H235.728V54.8813H245.454V56.1377Z" fill="#4C5256"/>
<path d="M256.2 63.3367H247.484V54.8813H256.119V56.1377H249.102V58.3113H253.328V59.5677H249.102V62.1003H256.2V63.3367Z" fill="#4C5256"/>
<path d="M274.279 63.3367H265.989V54.8813H267.606V62.0604H274.279V63.3367Z" fill="#4C5256"/>
<path d="M277.983 63.3367H276.365V54.9013H277.983V63.3367Z" fill="#4C5256"/>
<path d="M292.531 63.3367H291.035V57.5535C291.035 57.1813 291.069 56.8157 291.136 56.4567C290.947 56.9885 290.759 57.3807 290.57 57.6333L287.274 62.0006H286.849L283.432 57.6732C283.176 57.3541 282.967 56.9486 282.805 56.4567C282.832 57.1879 282.845 57.5668 282.845 57.5934V63.3367H281.511V54.8813H282.845L287.112 60.3653L291.035 54.8813H292.531V63.3367Z" fill="#4C5256"/>
<path d="M297.692 63.3367H296.074V54.9013H297.692V63.3367Z" fill="#4C5256"/>
<path d="M309.409 56.1377H305.345V63.3367H303.727V56.1377H299.683V54.8813H309.409V56.1377Z" fill="#4C5256"/>
<path d="M320.155 63.3367H311.439V54.8813H320.074V56.1377H313.057V58.3113H317.283V59.5677H313.057V62.1003H320.155V63.3367Z" fill="#4C5256"/>
<path d="M333.684 59.0891C333.684 61.9208 331.918 63.3367 328.386 63.3367H323.452V54.8813H328.386C329.976 54.8813 331.122 55.1007 331.823 55.5394C333.064 56.3105 333.684 57.4937 333.684 59.0891ZM332.066 59.0691C332.066 57.9258 331.695 57.1281 330.954 56.6761C330.361 56.3172 329.444 56.1377 328.204 56.1377H325.069V62.0604H328.204C329.471 62.0604 330.394 61.8809 330.974 61.522C331.702 61.0566 332.066 60.239 332.066 59.0691Z" fill="#4C5256"/>
<path d="M188.179 60.0263V59.5263H187.679V60.0263H188.179ZM188.179 63.3367V63.8367H188.679V63.3367H188.179ZM186.561 63.3367H186.061V63.8367H186.561V63.3367ZM186.561 54.8813V54.3813H186.061V54.8813H186.561ZM188.179 56.1177V55.6177H187.679V56.1177H188.179ZM188.179 58.7899H187.679V59.2899H188.179V58.7899ZM207.965 63.3367V63.8367H209.295L208.294 62.9604L207.965 63.3367ZM205.801 63.3367L205.453 63.6958L205.598 63.8367H205.801V63.3367ZM202.383 60.0263L202.731 59.6672L202.586 59.5263H202.383V60.0263ZM200.038 60.0263V59.5263H199.538V60.0263H200.038ZM200.038 63.3367V63.8367H200.538V63.3367H200.038ZM198.42 63.3367H197.92V63.8367H198.42V63.3367ZM198.42 54.8813V54.3813H197.92V54.8813H198.42ZM206.185 59.9266L206.324 60.4068L206.331 60.4048L206.338 60.4026L206.185 59.9266ZM204.183 60.0263V59.5263H202.853L203.854 60.4025L204.183 60.0263ZM200.038 56.1177V55.6177H199.538V56.1177H200.038ZM200.038 58.8498H199.538V59.3498H200.038V58.8498ZM205.316 58.6902L205.645 59.0662L205.647 59.0642L205.316 58.6902ZM211.994 63.3367V63.8367H212.494V63.3367H211.994ZM210.377 63.3367H209.877V63.8367H210.377V63.3367ZM210.377 54.9013V54.4013H209.877V54.9013H210.377ZM211.994 54.9013H212.494V54.4013H211.994V54.9013ZM224.844 54.8813L225.281 55.1239L225.693 54.3813H224.844V54.8813ZM220.153 63.3367V63.8367H220.447L220.59 63.5792L220.153 63.3367ZM218.919 63.3367L218.487 63.5887L218.632 63.8367H218.919V63.3367ZM213.985 54.8813V54.3813H213.115L213.553 55.1333L213.985 54.8813ZM215.724 54.8813L216.16 54.6354L216.016 54.3813H215.724V54.8813ZM219.566 61.6815L219.131 61.9274L219.576 62.7146L220.006 61.9195L219.566 61.6815ZM223.247 54.8813V54.3813H222.949L222.807 54.6434L223.247 54.8813ZM236.228 63.3367V63.8367H237.111L236.656 63.0793L236.228 63.3367ZM234.468 63.3367L234.033 63.5821L234.176 63.8367H234.468V63.3367ZM233.356 61.3624L233.792 61.117L233.648 60.8624H233.356V61.3624ZM227.431 61.3624V60.8624H227.137L226.994 61.1204L227.431 61.3624ZM226.339 63.3367V63.8367H226.634L226.777 63.5787L226.339 63.3367ZM224.722 63.3367L224.29 63.0839L223.849 63.8367H224.722V63.3367ZM229.676 54.8813V54.3813H229.389L229.245 54.6286L229.676 54.8813ZM231.152 54.8813L231.581 54.624L231.435 54.3813H231.152V54.8813ZM232.669 60.146V60.646H233.527L233.104 59.8993L232.669 60.146ZM230.384 56.1177L230.819 55.871L230.382 55.1009L229.948 55.8727L230.384 56.1177ZM228.119 60.146L227.683 59.9009L227.264 60.646H228.119V60.146ZM245.454 56.1377V56.6377H245.954V56.1377H245.454ZM241.39 56.1377V55.6377H240.89V56.1377H241.39ZM241.39 63.3367V63.8367H241.89V63.3367H241.39ZM239.772 63.3367H239.272V63.8367H239.772V63.3367ZM239.772 56.1377H240.272V55.6377H239.772V56.1377ZM235.728 56.1377H235.228V56.6377H235.728V56.1377ZM235.728 54.8813V54.3813H235.228V54.8813H235.728ZM245.454 54.8813H245.954V54.3813H245.454V54.8813ZM256.2 63.3367V63.8367H256.7V63.3367H256.2ZM247.484 63.3367H246.984V63.8367H247.484V63.3367ZM247.484 54.8813V54.3813H246.984V54.8813H247.484ZM256.119 54.8813H256.619V54.3813H256.119V54.8813ZM256.119 56.1377V56.6377H256.619V56.1377H256.119ZM249.102 56.1377V55.6377H248.602V56.1377H249.102ZM249.102 58.3113H248.602V58.8113H249.102V58.3113ZM253.328 58.3113H253.828V57.8113H253.328V58.3113ZM253.328 59.5677V60.0677H253.828V59.5677H253.328ZM249.102 59.5677V59.0677H248.602V59.5677H249.102ZM249.102 62.1003H248.602V62.6003H249.102V62.1003ZM256.2 62.1003H256.7V61.6003H256.2V62.1003ZM274.279 63.3367V63.8367H274.779V63.3367H274.279ZM265.989 63.3367H265.489V63.8367H265.989V63.3367ZM265.989 54.8813V54.3813H265.489V54.8813H265.989ZM267.606 54.8813H268.106V54.3813H267.606V54.8813ZM267.606 62.0604H267.106V62.5604H267.606V62.0604ZM274.279 62.0604H274.779V61.5604H274.279V62.0604ZM277.983 63.3367V63.8367H278.483V63.3367H277.983ZM276.365 63.3367H275.865V63.8367H276.365V63.3367ZM276.365 54.9013V54.4013H275.865V54.9013H276.365ZM277.983 54.9013H278.483V54.4013H277.983V54.9013ZM292.531 63.3367V63.8367H293.031V63.3367H292.531ZM291.035 63.3367H290.535V63.8367H291.035V63.3367ZM291.136 56.4567L291.628 56.549L290.665 56.2895L291.136 56.4567ZM290.57 57.6333L290.969 57.9345L290.97 57.9326L290.57 57.6333ZM287.274 62.0006V62.5006H287.523L287.673 62.3018L287.274 62.0006ZM286.849 62.0006L286.457 62.3104L286.607 62.5006H286.849V62.0006ZM283.432 57.6732L283.824 57.3633L283.822 57.3602L283.432 57.6732ZM282.805 56.4567L283.28 56.3005L282.305 56.4752L282.805 56.4567ZM282.845 63.3367V63.8367H283.345V63.3367H282.845ZM281.511 63.3367H281.011V63.8367H281.511V63.3367ZM281.511 54.8813V54.3813H281.011V54.8813H281.511ZM282.845 54.8813L283.24 54.5743L283.09 54.3813H282.845V54.8813ZM287.112 60.3653L286.717 60.6724L287.129 61.2012L287.519 60.6562L287.112 60.3653ZM291.035 54.8813V54.3813H290.778L290.628 54.5904L291.035 54.8813ZM292.531 54.8813H293.031V54.3813H292.531V54.8813ZM297.692 63.3367V63.8367H298.192V63.3367H297.692ZM296.074 63.3367H295.574V63.8367H296.074V63.3367ZM296.074 54.9013V54.4013H295.574V54.9013H296.074ZM297.692 54.9013H298.192V54.4013H297.692V54.9013ZM309.409 56.1377V56.6377H309.909V56.1377H309.409ZM305.345 56.1377V55.6377H304.845V56.1377H305.345ZM305.345 63.3367V63.8367H305.845V63.3367H305.345ZM303.727 63.3367H303.227V63.8367H303.727V63.3367ZM303.727 56.1377H304.227V55.6377H303.727V56.1377ZM299.683 56.1377H299.183V56.6377H299.683V56.1377ZM299.683 54.8813V54.3813H299.183V54.8813H299.683ZM309.409 54.8813H309.909V54.3813H309.409V54.8813ZM320.155 63.3367V63.8367H320.655V63.3367H320.155ZM311.439 63.3367H310.939V63.8367H311.439V63.3367ZM311.439 54.8813V54.3813H310.939V54.8813H311.439ZM320.074 54.8813H320.574V54.3813H320.074V54.8813ZM320.074 56.1377V56.6377H320.574V56.1377H320.074ZM313.057 56.1377V55.6377H312.557V56.1377H313.057ZM313.057 58.3113H312.557V58.8113H313.057V58.3113ZM317.283 58.3113H317.783V57.8113H317.283V58.3113ZM317.283 59.5677V60.0677H317.783V59.5677H317.283ZM313.057 59.5677V59.0677H312.557V59.5677H313.057ZM313.057 62.1003H312.557V62.6003H313.057V62.1003ZM320.155 62.1003H320.655V61.6003H320.155V62.1003ZM323.452 63.3367H322.952V63.8367H323.452V63.3367ZM323.452 54.8813V54.3813H322.952V54.8813H323.452ZM331.823 55.5394L331.558 55.9633L331.559 55.964L331.823 55.5394ZM330.954 56.6761L331.214 56.2492L331.213 56.2483L330.954 56.6761ZM325.069 56.1377V55.6377H324.569V56.1377H325.069ZM325.069 62.0604H324.569V62.5604H325.069V62.0604ZM330.974 61.522L331.237 61.9471L331.243 61.9432L330.974 61.522ZM195.181 58.411C195.181 58.8509 195.057 59.0959 194.885 59.2432C194.699 59.403 194.367 59.5263 193.801 59.5263V60.5263C194.488 60.5263 195.096 60.3804 195.537 60.0018C195.992 59.6106 196.181 59.0481 196.181 58.411H195.181ZM193.801 59.5263H188.179V60.5263H193.801V59.5263ZM187.679 60.0263V63.3367H188.679V60.0263H187.679ZM188.179 62.8367H186.561V63.8367H188.179V62.8367ZM187.061 63.3367V54.8813H186.061V63.3367H187.061ZM186.561 55.3813H193.801V54.3813H186.561V55.3813ZM193.801 55.3813C194.366 55.3813 194.697 55.5058 194.883 55.6675C195.056 55.8175 195.181 56.0682 195.181 56.5166H196.181C196.181 55.8748 195.993 55.3079 195.539 54.9128C195.098 54.5294 194.489 54.3813 193.801 54.3813V55.3813ZM195.181 56.5166V58.411H196.181V56.5166H195.181ZM194.543 57.9923V56.9154H193.543V57.9923H194.543ZM194.543 56.9154C194.543 56.5437 194.425 56.1835 194.118 55.9309C193.829 55.6937 193.452 55.6177 193.073 55.6177V56.6177C193.34 56.6177 193.448 56.6747 193.483 56.7034C193.499 56.7167 193.543 56.7553 193.543 56.9154H194.543ZM193.073 55.6177H188.179V56.6177H193.073V55.6177ZM187.679 56.1177V58.7899H188.679V56.1177H187.679ZM188.179 59.2899H193.073V58.2899H188.179V59.2899ZM193.073 59.2899C193.452 59.2899 193.829 59.214 194.118 58.9768C194.425 58.7242 194.543 58.3639 194.543 57.9923H193.543C193.543 58.1524 193.499 58.191 193.483 58.2042C193.448 58.2329 193.34 58.2899 193.073 58.2899V59.2899ZM207.965 62.8367H205.801V63.8367H207.965V62.8367ZM206.149 62.9775L202.731 59.6672L202.036 60.3855L205.453 63.6958L206.149 62.9775ZM202.383 59.5263H200.038V60.5263H202.383V59.5263ZM199.538 60.0263V63.3367H200.538V60.0263H199.538ZM200.038 62.8367H198.42V63.8367H200.038V62.8367ZM198.92 63.3367V54.8813H197.92V63.3367H198.92ZM198.42 55.3813H205.316V54.3813H198.42V55.3813ZM205.316 55.3813C205.85 55.3813 206.157 55.5037 206.329 55.6602C206.492 55.8085 206.615 56.0616 206.615 56.5166H207.615C207.615 55.8814 207.438 55.3169 207.002 54.9201C206.574 54.5315 205.981 54.3813 205.316 54.3813V55.3813ZM206.615 56.5166V58.411H207.615V56.5166H206.615ZM206.615 58.411C206.615 58.7569 206.549 58.9866 206.457 59.1366C206.37 59.2771 206.24 59.3836 206.032 59.4506L206.338 60.4026C206.75 60.2702 207.085 60.0244 207.309 59.6597C207.527 59.3045 207.615 58.8761 207.615 58.411H206.615ZM206.046 59.4464C205.996 59.4609 205.829 59.485 205.488 59.502C205.166 59.518 204.732 59.5263 204.183 59.5263V60.5263C204.74 60.5263 205.192 60.518 205.538 60.5008C205.864 60.4845 206.145 60.4587 206.324 60.4068L206.046 59.4464ZM203.854 60.4025L207.635 63.7129L208.294 62.9604L204.513 59.6501L203.854 60.4025ZM206.018 57.9923V56.9752H205.018V57.9923H206.018ZM206.018 56.9752C206.018 56.6045 205.918 56.2366 205.633 55.9682C205.354 55.7051 204.981 55.6177 204.608 55.6177V56.6177C204.841 56.6177 204.923 56.6733 204.947 56.696C204.966 56.7135 205.018 56.7743 205.018 56.9752H206.018ZM204.608 55.6177H200.038V56.6177H204.608V55.6177ZM199.538 56.1177V58.8498H200.538V56.1177H199.538ZM200.038 59.3498H204.608V58.3498H200.038V59.3498ZM204.608 59.3498C204.805 59.3498 204.991 59.3351 205.158 59.2976C205.32 59.2611 205.498 59.1951 205.645 59.0662L204.986 58.3142C205.012 58.2917 205.012 58.3054 204.938 58.3221C204.868 58.3378 204.761 58.3498 204.608 58.3498V59.3498ZM205.647 59.0642C205.954 58.7923 206.018 58.3625 206.018 57.9923H205.018C205.018 58.1363 205.003 58.2305 204.987 58.2869C204.971 58.3428 204.96 58.3372 204.984 58.3163L205.647 59.0642ZM211.994 62.8367H210.377V63.8367H211.994V62.8367ZM210.877 63.3367V54.9013H209.877V63.3367H210.877ZM210.377 55.4013H211.994V54.4013H210.377V55.4013ZM211.494 54.9013V63.3367H212.494V54.9013H211.494ZM224.407 54.6388L219.716 63.0941L220.59 63.5792L225.281 55.1239L224.407 54.6388ZM220.153 62.8367H218.919V63.8367H220.153V62.8367ZM219.351 63.0847L214.417 54.6293L213.553 55.1333L218.487 63.5887L219.351 63.0847ZM213.985 55.3813H215.724V54.3813H213.985V55.3813ZM215.289 55.1273L219.131 61.9274L220.002 61.4355L216.16 54.6354L215.289 55.1273ZM220.006 61.9195L223.686 55.1193L222.807 54.6434L219.127 61.4435L220.006 61.9195ZM223.247 55.3813H224.844V54.3813H223.247V55.3813ZM236.228 62.8367H234.468V63.8367H236.228V62.8367ZM234.904 63.0912L233.792 61.117L232.921 61.6078L234.033 63.5821L234.904 63.0912ZM233.356 60.8624H227.431V61.8624H233.356V60.8624ZM226.994 61.1204L225.902 63.0947L226.777 63.5787L227.869 61.6044L226.994 61.1204ZM226.339 62.8367H224.722V63.8367H226.339V62.8367ZM225.153 63.5894L230.107 55.1341L229.245 54.6286L224.29 63.0839L225.153 63.5894ZM229.676 55.3813H231.152V54.3813H229.676V55.3813ZM230.723 55.1387L235.799 63.594L236.656 63.0793L231.581 54.624L230.723 55.1387ZM233.104 59.8993L230.819 55.871L229.949 56.3644L232.234 60.3927L233.104 59.8993ZM229.948 55.8727L227.683 59.9009L228.555 60.391L230.82 56.3628L229.948 55.8727ZM228.119 60.646H232.669V59.646H228.119V60.646ZM245.454 55.6377H241.39V56.6377H245.454V55.6377ZM240.89 56.1377V63.3367H241.89V56.1377H240.89ZM241.39 62.8367H239.772V63.8367H241.39V62.8367ZM240.272 63.3367V56.1377H239.272V63.3367H240.272ZM239.772 55.6377H235.728V56.6377H239.772V55.6377ZM236.228 56.1377V54.8813H235.228V56.1377H236.228ZM235.728 55.3813H245.454V54.3813H235.728V55.3813ZM244.954 54.8813V56.1377H245.954V54.8813H244.954ZM256.2 62.8367H247.484V63.8367H256.2V62.8367ZM247.984 63.3367V54.8813H246.984V63.3367H247.984ZM247.484 55.3813H256.119V54.3813H247.484V55.3813ZM255.619 54.8813V56.1377H256.619V54.8813H255.619ZM256.119 55.6377H249.102V56.6377H256.119V55.6377ZM248.602 56.1377V58.3113H249.602V56.1377H248.602ZM249.102 58.8113H253.328V57.8113H249.102V58.8113ZM252.828 58.3113V59.5677H253.828V58.3113H252.828ZM253.328 59.0677H249.102V60.0677H253.328V59.0677ZM248.602 59.5677V62.1003H249.602V59.5677H248.602ZM249.102 62.6003H256.2V61.6003H249.102V62.6003ZM255.7 62.1003V63.3367H256.7V62.1003H255.7ZM274.279 62.8367H265.989V63.8367H274.279V62.8367ZM266.489 63.3367V54.8813H265.489V63.3367H266.489ZM265.989 55.3813H267.606V54.3813H265.989V55.3813ZM267.106 54.8813V62.0604H268.106V54.8813H267.106ZM267.606 62.5604H274.279V61.5604H267.606V62.5604ZM273.779 62.0604V63.3367H274.779V62.0604H273.779ZM277.983 62.8367H276.365V63.8367H277.983V62.8367ZM276.865 63.3367V54.9013H275.865V63.3367H276.865ZM276.365 55.4013H277.983V54.4013H276.365V55.4013ZM277.483 54.9013V63.3367H278.483V54.9013H277.483ZM292.531 62.8367H291.035V63.8367H292.531V62.8367ZM291.535 63.3367V57.5535H290.535V63.3367H291.535ZM291.535 57.5535C291.535 57.2117 291.566 56.877 291.628 56.549L290.645 56.3645C290.572 56.7544 290.535 57.1509 290.535 57.5535H291.535ZM290.665 56.2895C290.482 56.8051 290.313 57.1415 290.169 57.334L290.97 57.9326C291.204 57.6199 291.413 57.172 291.607 56.624L290.665 56.2895ZM290.171 57.3321L286.875 61.6993L287.673 62.3018L290.969 57.9345L290.171 57.3321ZM287.274 61.5006H286.849V62.5006H287.274V61.5006ZM287.242 61.6907L283.824 57.3633L283.039 57.9831L286.457 62.3104L287.242 61.6907ZM283.822 57.3602C283.612 57.0984 283.428 56.75 283.28 56.3005L282.33 56.613C282.506 57.1473 282.74 57.6098 283.042 57.9862L283.822 57.3602ZM282.305 56.4752C282.319 56.8407 282.329 57.118 282.336 57.3071C282.339 57.4017 282.341 57.4739 282.343 57.524C282.345 57.581 282.345 57.5976 282.345 57.5934H283.345C283.345 57.5546 283.331 57.1589 283.305 56.4383L282.305 56.4752ZM282.345 57.5934V63.3367H283.345V57.5934H282.345ZM282.845 62.8367H281.511V63.8367H282.845V62.8367ZM282.011 63.3367V54.8813H281.011V63.3367H282.011ZM281.511 55.3813H282.845V54.3813H281.511V55.3813ZM282.451 55.1884L286.717 60.6724L287.507 60.0583L283.24 54.5743L282.451 55.1884ZM287.519 60.6562L291.442 55.1723L290.628 54.5904L286.705 60.0744L287.519 60.6562ZM291.035 55.3813H292.531V54.3813H291.035V55.3813ZM292.031 54.8813V63.3367H293.031V54.8813H292.031ZM297.692 62.8367H296.074V63.8367H297.692V62.8367ZM296.574 63.3367V54.9013H295.574V63.3367H296.574ZM296.074 55.4013H297.692V54.4013H296.074V55.4013ZM297.192 54.9013V63.3367H298.192V54.9013H297.192ZM309.409 55.6377H305.345V56.6377H309.409V55.6377ZM304.845 56.1377V63.3367H305.845V56.1377H304.845ZM305.345 62.8367H303.727V63.8367H305.345V62.8367ZM304.227 63.3367V56.1377H303.227V63.3367H304.227ZM303.727 55.6377H299.683V56.6377H303.727V55.6377ZM300.183 56.1377V54.8813H299.183V56.1377H300.183ZM299.683 55.3813H309.409V54.3813H299.683V55.3813ZM308.909 54.8813V56.1377H309.909V54.8813H308.909ZM320.155 62.8367H311.439V63.8367H320.155V62.8367ZM311.939 63.3367V54.8813H310.939V63.3367H311.939ZM311.439 55.3813H320.074V54.3813H311.439V55.3813ZM319.574 54.8813V56.1377H320.574V54.8813H319.574ZM320.074 55.6377H313.057V56.6377H320.074V55.6377ZM312.557 56.1377V58.3113H313.557V56.1377H312.557ZM313.057 58.8113H317.283V57.8113H313.057V58.8113ZM316.783 58.3113V59.5677H317.783V58.3113H316.783ZM317.283 59.0677H313.057V60.0677H317.283V59.0677ZM312.557 59.5677V62.1003H313.557V59.5677H312.557ZM313.057 62.6003H320.155V61.6003H313.057V62.6003ZM319.655 62.1003V63.3367H320.655V62.1003H319.655ZM333.184 59.0891C333.184 60.3949 332.782 61.295 332.046 61.8847C331.29 62.4913 330.098 62.8367 328.386 62.8367V63.8367C330.205 63.8367 331.663 63.4741 332.672 62.6649C333.702 61.8387 334.184 60.6149 334.184 59.0891H333.184ZM328.386 62.8367H323.452V63.8367H328.386V62.8367ZM323.952 63.3367V54.8813H322.952V63.3367H323.952ZM323.452 55.3813H328.386V54.3813H323.452V55.3813ZM328.386 55.3813C329.955 55.3813 330.981 55.6023 331.558 55.9633L332.089 55.1156C331.263 54.5991 329.998 54.3813 328.386 54.3813V55.3813ZM331.559 55.964C332.637 56.6342 333.184 57.6474 333.184 59.0891H334.184C334.184 57.34 333.49 55.9868 332.087 55.1148L331.559 55.964ZM332.566 59.0691C332.566 57.8139 332.151 56.8203 331.214 56.2492L330.694 57.103C331.24 57.4359 331.566 58.0377 331.566 59.0691H332.566ZM331.213 56.2483C330.501 55.8179 329.473 55.6377 328.204 55.6377V56.6377C329.415 56.6377 330.22 56.8164 330.695 57.1039L331.213 56.2483ZM328.204 55.6377H325.069V56.6377H328.204V55.6377ZM324.569 56.1377V62.0604H325.569V56.1377H324.569ZM325.069 62.5604H328.204V61.5604H325.069V62.5604ZM328.204 62.5604C329.496 62.5604 330.536 62.3814 331.237 61.9471L330.711 61.0969C330.253 61.3804 329.446 61.5604 328.204 61.5604V62.5604ZM331.243 61.9432C332.164 61.355 332.566 60.3425 332.566 59.0691H331.566C331.566 60.1355 331.24 60.7583 330.705 61.1007L331.243 61.9432Z" fill="#4C5256"/>
</svg>
