<svg width="36" height="32" viewBox="0 0 36 32" fill="none" xmlns="http://www.w3.org/2000/svg">
<path fill-rule="evenodd" clip-rule="evenodd" d="M30.9895 23.7826C29.6486 26.1187 28.2045 27.3444 26.0751 29.043L23.7059 26.7827C25.5765 25.6349 26.9955 24.102 28.0672 22.2348C29.1389 20.3676 29.7068 18.2722 29.7188 16.14C29.7233 15.3465 29.6508 14.5571 29.5038 13.7821L32.0519 10.5116C32.7481 12.307 33.0668 14.1887 33.0557 16.1575C33.0405 18.8251 32.3303 21.4464 30.9895 23.7826ZM30.6327 7.72849C29.4147 5.7748 27.9251 4.12066 25.9058 2.85156L23.5649 5.19399C25.4223 6.36133 27.1469 7.96108 28.1363 10.0283C28.1435 10.041 28.1505 10.0536 28.1576 10.0663L30.6327 7.72849Z" fill="#4C5256"/>
<path d="M24.2425 1.8608C21.709 0.612748 19.0024 -0.0832521 16.1548 0.00797521C13.3074 0.0992023 10.5315 0.885876 8.09084 2.2933C5.65021 3.7007 3.62583 5.68213 2.20995 8.04943C0.794088 10.4167 0.0337308 13.0912 0.0010967 15.8191C-0.0315374 18.5468 0.664634 21.2373 2.02351 23.635C3.38237 26.0328 5.35882 28.0581 7.76512 29.5186C10.1715 30.9793 12.9278 31.8266 15.7724 31.9802C18.617 32.1338 21.7901 31.3832 24.3276 30.0518L21.9175 27.7049C20.1739 28.4048 18.235 28.8965 15.9613 28.7737C13.6876 28.651 11.4844 27.9737 9.56097 26.8061C7.63758 25.6388 6.05774 24.0198 4.97161 22.1034C3.88544 20.1868 3.32898 18.0362 3.35506 15.8558C3.38115 13.6754 3.98891 11.5376 5.12062 9.64544C6.25235 7.75324 7.87047 6.16942 9.82133 5.04448C11.7722 3.91951 13.991 3.29069 16.2671 3.21778C18.5295 3.21778 19.7344 3.38429 21.7464 4.22639L24.2425 1.8608Z" fill="#21AAE9"/>
<path d="M6.98193 10.2441H10.1157L15.273 23.2342H12.1393L6.98193 10.2441Z" fill="#21AAE9"/>
<path d="M19.8538 10.2441H16.6787L11.4536 23.2342H14.6286L19.8538 10.2441Z" fill="#21AAE9"/>
<path d="M11.1942 10.2441H10.0942L10.0386 10.2705L10.6512 11.8283L10.7347 11.8019C10.5342 11.2105 10.9389 10.8338 11.1663 10.7194C11.6787 10.4237 11.3983 10.2793 11.1942 10.2441Z" fill="#21AAE9"/>
<path d="M20.971 10.2441H19.9101L19.8545 10.2705L20.467 11.8283L20.5507 11.8019C20.3501 11.2105 20.7548 10.8338 20.9822 10.7194C21.4632 10.4418 21.2457 10.2976 21.0483 10.2518C21.023 10.246 20.997 10.2441 20.971 10.2441Z" fill="#21AAE9"/>
<path d="M13.1793 17.9541C13.387 18.1628 13.5342 18.0411 13.5819 17.9541L13.6338 17.9666L13.387 18.5878L13.0884 17.9666L13.1793 17.9541Z" fill="#21AAE9"/>
<path d="M16.7979 10.2441H19.947L22.3616 16.528L20.8506 20.5939L16.7979 10.2441Z" fill="#21AAE9"/>
<path d="M15.1305 22.0328C15.0291 22.4341 15.1821 22.6225 15.2713 22.6664L15.229 22.8117L14.835 22.4156L14.9757 21.9668L15.1305 22.0328Z" fill="#21AAE9"/>
<path d="M11.5726 21.8623C11.6784 22.3807 11.5594 22.6832 11.4536 22.712L11.5197 22.8128L11.89 22.3807L11.7578 21.8911L11.5726 21.8623Z" fill="#21AAE9"/>
<path d="M18.592 14.9972C18.2645 14.4511 18.0038 14.7696 17.9143 14.9972H17.6743L18.239 13.4131L18.8744 14.9972H18.592Z" fill="#21AAE9"/>
<path d="M6.46554 10.6737C6.97349 10.8026 7.42027 11.4971 7.58022 11.8283H7.63666L7.00173 10.2441H6.29626C5.88989 10.3945 6.23981 10.5932 6.46554 10.6737Z" fill="#21AAE9"/>
<path d="M11.1604 22.804C11.6683 22.6751 12.1151 21.9805 12.275 21.6494H12.3315L11.6966 23.2336H11.0322C11.005 23.2336 10.9778 23.2291 10.953 23.2185C10.6079 23.0702 10.9422 22.8818 11.1604 22.804Z" fill="#21AAE9"/>
<path d="M15.6829 22.804C15.1749 22.6751 14.7281 21.9805 14.5682 21.6494H14.5117L15.1467 23.2336H15.8109C15.8381 23.2336 15.8654 23.2291 15.8903 23.2185C16.2353 23.0702 15.9011 22.8818 15.6829 22.804Z" fill="#21AAE9"/>
<path d="M20.8664 22.804C21.3743 22.6751 21.8211 21.9805 21.981 21.6494H22.0375L21.4026 23.2336H20.7383C20.7111 23.2336 20.6838 23.2291 20.659 23.2185C20.3139 23.0702 20.6482 22.8818 20.8664 22.804Z" fill="#21AAE9"/>
<path d="M25.6062 22.804C25.0983 22.6751 24.6515 21.9805 24.4915 21.6494H24.4351L25.07 23.2336H25.7343C25.7615 23.2336 25.7889 23.2291 25.8136 23.2185C26.1586 23.0702 25.8244 22.8818 25.6062 22.804Z" fill="#21AAE9"/>
<path d="M15.5741 10.2441H16.635L16.6907 10.2705L16.0781 11.8283L15.9945 11.8019C16.1951 11.2105 15.7903 10.8338 15.5628 10.7194C15.082 10.4418 15.2995 10.2976 15.4969 10.2518C15.5221 10.246 15.5481 10.2441 15.5741 10.2441Z" fill="#21AAE9"/>
<path d="M25.2025 23.0234H21.3843V23.2347H25.2025V23.0234Z" fill="#21AAE9"/>
<path d="M21.3143 22.3061C21.2574 22.4707 21.1203 22.6399 21.0588 22.704L20.9453 22.8961L21.4561 23.1293H25.0743L25.1027 22.9785L25.0743 22.5943C25.3127 16.9632 32.4575 8.28346 36.0001 4.64746C26.7374 10.9261 22.35 19.036 21.3143 22.3061Z" fill="#21AAE9"/>
</svg>
